<?xml version="1.0" encoding="UTF-8" standalone="no"?>
<!DOCTYPE svg PUBLIC "-//W3C//DTD SVG 1.1//EN" "http://www.w3.org/Graphics/SVG/1.1/DTD/svg11.dtd">
<!-- Created with Inkscape (http://www.inkscape.org/) -->
<svg xmlns:dc="http://purl.org/dc/elements/1.1/" xmlns:cc="http://creativecommons.org/ns#" xmlns:rdf="http://www.w3.org/1999/02/22-rdf-syntax-ns#" xmlns:svg="http://www.w3.org/2000/svg" xmlns="http://www.w3.org/2000/svg" version="1.1" width="247.19917" height="308.16666" id="svg2">
  <defs id="defs4"/>
  <metadata id="metadata7">
    <rdf:RDF>
      <cc:Work rdf:about="">
        <dc:format>image/svg+xml</dc:format>
        <dc:type rdf:resource="http://purl.org/dc/dcmitype/StillImage"/>
        <dc:title/>
      </cc:Work>
    </rdf:RDF>
  </metadata>
  <g transform="translate(-168.5,-128.52885)" id="layer1">
    <path d="m 184.5,144.52885 0,244.83333 c 0,12.5802 7.12785,21 21.16667,21 l 65,0 c 14.13105,0 18.24445,5.78642 21.43292,12.33334 3.18847,-6.54692 7.30187,-12.33334 21.43292,-12.33334 l 65,0 c 14.03882,0 21.16667,-8.4198 21.16667,-21 l 0,-244.83333 z" id="path4083" style="fill:none;stroke:#ed7411;stroke-width:12;stroke-linecap:round;stroke-linejoin:round;stroke-miterlimit:4"/>
    <path d="m 184.5,144.52885 0,244.83333 c 0,12.5802 7.12785,21 21.16667,21 l 65,0 c 14.13105,0 18.24445,5.78642 21.43292,12.33334 3.18847,-6.54692 7.30187,-12.33334 21.43292,-12.33334 l 65,0 c 14.03882,0 21.16667,-8.4198 21.16667,-21 l 0,-244.83333 z" id="path4054" style="fill:#ed7411;;stroke:#000000;stroke-width:5;stroke-linecap:round;stroke-linejoin:round;stroke-miterlimit:4"/>
    <path d="m 292.15625,205.03125 c -2.54235,0 -4.90311,0.80755 -6.84375,2.15625 -2.31571,0.29848 -4.125,2.25931 -4.125,4.65625 0,0.0946 0.0258,0.18803 0.0312,0.28125 -0.67738,1.50293 -1.0625,3.15071 -1.0625,4.90625 0,1.76815 0.37591,3.45741 1.0625,4.96875 -0.015,0.15305 -0.0312,0.31176 -0.0312,0.46875 0,2.51615 1.98619,4.52168 4.46875,4.65625 1.87332,1.20952 4.10427,1.90625 6.5,1.90625 2.4053,0 4.65332,-0.68783 6.53125,-1.90625 2.40759,-0.21129 4.3125,-2.1938 4.3125,-4.65625 0,-0.0842 -0.0269,-0.16689 -0.0312,-0.25 0.75452,-1.57069 1.1875,-3.32849 1.1875,-5.1875 0,-1.83945 -0.41659,-3.5669 -1.15625,-5.125 2.7e-4,-0.0207 0,-0.0417 0,-0.0625 0,-2.35399 -1.74473,-4.30437 -4,-4.65625 -1.94064,-1.3487 -4.3014,-2.15625 -6.84375,-2.15625 z m 3.03125,2.8125 a 0.50004998,0.50004998 0 0 1 0.0312,0 0.50004998,0.50004998 0 0 1 0.375,0.90625 c -0.91891,0.8123 -2.14783,1.3125 -3.46875,1.3125 -1.2106,0 -2.30212,-0.43043 -3.1875,-1.125 a 0.50004998,0.50004998 0 1 1 0.59375,-0.78125 c 0.71625,0.56188 1.61084,0.875 2.59375,0.875 1.07247,0 2.06893,-0.40518 2.8125,-1.0625 a 0.50004998,0.50004998 0 0 1 0.25,-0.125 z M 284.75,210.875 a 0.50005,0.50005 0 0 1 0.0625,0 0.50005,0.50005 0 0 1 0.53125,0.3125 c 0.48859,1.12496 0.56444,2.43123 0.15625,3.6875 -0.3741,1.15135 -1.09708,2.09134 -2.03125,2.71875 a 0.50703065,0.50703065 0 1 1 -0.5625,-0.84375 c 0.75571,-0.50755 1.35251,-1.25269 1.65625,-2.1875 0.33141,-1.01997 0.23912,-2.05845 -0.15625,-2.96875 A 0.50005,0.50005 0 0 1 284.75,210.875 z m 14.46875,0.25 a 0.50005,0.50005 0 0 1 0.0625,0 0.50005,0.50005 0 0 1 0.5,0.6875 c -0.31302,0.85482 -0.335,1.8152 -0.0312,2.75 0.3314,1.01998 1.02006,1.83968 1.875,2.34375 A 0.50005,0.50005 0 1 1 301.0938,217.75 c -1.05652,-0.62293 -1.90432,-1.61872 -2.3125,-2.875 -0.37411,-1.15136 -0.32451,-2.34957 0.0625,-3.40625 a 0.50005,0.50005 0 0 1 0.375,-0.34375 z m -7.09375,0.6875 c 2.87336,0 5.25,2.34539 5.25,5.21875 0,2.87336 -2.37664,5.21875 -5.25,5.21875 -2.87336,0 -5.1875,-2.34539 -5.1875,-5.21875 0,-2.87336 2.31414,-5.21875 5.1875,-5.21875 z m 0,1 c -2.33292,0 -4.1875,1.88583 -4.1875,4.21875 0,2.33292 1.85458,4.1875 4.1875,4.1875 2.33291,0 4.25,-1.85458 4.25,-4.1875 0,-2.33292 -1.91709,-4.21875 -4.25,-4.21875 z m 7.375,8.875 a 0.50024408,0.50024408 0 1 1 -0.0312,1 c -0.90971,-0.0336 -1.82982,0.23475 -2.625,0.8125 -0.86765,0.63037 -1.40979,1.53115 -1.625,2.5 a 0.5118231,0.5118231 0 1 1 -1,-0.21875 c 0.26595,-1.19731 0.9626,-2.31734 2.03125,-3.09375 0.9794,-0.71159 2.12545,-1.0415 3.25,-1 z m -15.1875,0.0312 a 0.5118231,0.5118231 0 0 1 0.0625,0 0.50005,0.50005 0 0 1 0.125,0 c 1.22088,-0.11705 2.49386,0.19233 3.5625,0.96875 0.9794,0.71158 1.62948,1.69892 1.9375,2.78125 a 0.50437539,0.50437539 0 1 1 -0.96875,0.28125 c -0.24918,-0.87557 -0.7673,-1.67226 -1.5625,-2.25 -0.86764,-0.63038 -1.88706,-0.87595 -2.875,-0.78125 a 0.51939907,0.51939907 0 0 1 -0.28125,-1 z" id="path3213" style="fill:#000000;stroke:none"/>
    <path d="M 248.28125,173.90625 273.21875,193 l -12.375,11.3125 18.09375,9.9375 c 0.20378,-0.95572 0.51218,-1.87566 0.90625,-2.75 -0.006,-0.10487 -0.0312,-0.20607 -0.0312,-0.3125 0,-1.83064 0.9574,-3.39697 2.375,-4.34375 l -8.15625,-4.53125 13.65625,-12.03125 -39.40625,-16.375 z m 87.65625,0 -39.4375,16.375 13.6875,12.03125 -8.15625,4.53125 c 1.39446,0.95604 2.3125,2.53069 2.3125,4.34375 0,0.0234 3e-4,0.0704 0,0.0937 0.43829,0.92328 0.77875,1.88668 1,2.90625 L 323.375,204.3125 311,193 335.9375,173.90625 z m -76.65625,40.0625 -44.78125,31.46875 36.0625,-14.96875 0,13.65625 30.40625,-17.75 c -0.71054,-0.88891 -1.15625,-1.98465 -1.15625,-3.21875 0,-0.17662 0.0143,-0.35906 0.0312,-0.53125 -0.49977,-1.10009 -0.844,-2.29374 -1.03125,-3.53125 l -19.53125,10.78125 0,-15.90625 z m 65.625,0 0,15.90625 -19.4375,-10.75 c -0.21005,1.31361 -0.59921,2.59039 -1.15625,3.75 0.005,0.0935 0.0312,0.18655 0.0312,0.28125 0,1.22436 -0.42397,2.33073 -1.125,3.21875 l 30.40625,17.75 0,-13.65625 36.0625,14.96875 -44.78125,-31.46875 z" id="path3203" style="fill:#000000;stroke:none"/>
    <path d="m 292.15625,284.15625 c -24.92321,0 -45.13358,20.15929 -45.21875,45.0625 1.84598,3.23385 3.80122,6.19805 5.8125,8.71875 3.14441,3.94084 8.3903,8.75806 14.625,13.15625 -5.09154,-5.80266 -8.1875,-13.39158 -8.1875,-21.71875 0,-18.20939 14.75936,-32.96875 32.96875,-32.96875 18.20939,0 32.96875,14.75936 32.96875,32.96875 0,18.20939 -14.75936,32.96875 -32.96875,32.96875 -6.11269,0 -11.87017,-1.61724 -16.75,-4.5625 -9.52492,-5.74885 -17.68725,-11.72075 -23.56245,-18.74995 -6.71905,-8.42087 -12.81315,-21.82655 -16.34375,-33.5 -0.82016,-2.85166 -2.34947,-3.04942 -3.34375,-2 -8.37299,8.88868 -16.96396,16.10535 -24.3125,21.15625 -1.76633,1.4012 -1.7708,3.25881 1.15625,4.5 13.93459,5.59185 23.677,10.74103 39.15625,24.6875 4.97197,4.47963 15.38232,11.722 22.96875,15.5625 0.0949,0.0499 0.18598,0.10699 0.28125,0.15625 0.10284,0.0514 0.21077,0.0749 0.3125,0.125 0.41779,0.21208 0.82486,0.42568 1.25,0.625 0.029,0.0132 0.0649,0.0182 0.0937,0.0312 5.80175,2.7045 12.26495,4.21875 19.09375,4.21875 24.97591,0 45.21875,-20.24284 45.21875,-45.21875 0,-24.97591 -20.24284,-45.21875 -45.21875,-45.21875 z" id="path4015" style="fill:#000000;stroke:none"/>
    <path d="m 355.84375,317.34375 c -0.31036,0.007 -0.61111,0.14754 -0.84375,0.375 L 338.875,333.5 c -0.58404,6.62901 -2.54773,12.87336 -5.625,18.40625 L 361.9375,323.875 c 0.46529,-0.45492 0.42348,-1.16099 -0.0625,-1.59375 l -5.15625,-4.625 c -0.24299,-0.21638 -0.56464,-0.31973 -0.875,-0.3125 z" id="rect4029" style="fill:#000000;stroke:none"/>
    <path d="m 364.41667,304.69551 c -1.09323,-1.35435 -3.54675,-1.54644 -2.66667,0.83334 0.77103,2.0849 1.51894,3.616 0.44198,5.19445 l -4.49947,4.39924 c -0.46533,0.45492 -0.44867,1.16956 0.0373,1.60231 l 5.17507,4.61286 c 0.43127,0.50163 1.14561,0.52858 1.60716,0.0698 l 4.46354,-4.43572 c 1.59379,-1.05412 3.11396,-0.28427 5.18754,0.51669 2.36687,0.91421 2.21011,-1.54182 0.87163,-2.65442 z" id="path4036" style="fill:#000000;stroke:none"/>
  </g>
</svg>